# xmcd CD database file
#
# Track frame offsets:
#	150
#	16028
#	29870
#	73133
#	84435
#	96503
#	109943
#	122003
#	133393
#	146938
#
# Disc length: 2111 seconds
#
# Revision: 4
# Processed by: cddbd v1.5.2PL0 Copyright (c) Steve Scherf et al.
# Submitted via: CDex 1.51
#
DISCID=99083d0a
DTITLE=The Temptations - Cloud Nine [Reissued 1991]
DYEAR=1969
DGENRE=Soul
TTITLE0=Cloud Nine
TTITLE1=I Heard It Through the Grapevine
TTITLE2=Runaway Child, Running Wild
TTITLE3=Love Is a Hurtin' Thing
TTITLE4=Hey Girl (I Like Your Style)
TTITLE5=Why Did She Have to Leave Me (Why Did She Have to Go)
TTITLE6=I Need Your Lovin'
TTITLE7=Don't Let Him Take Your Love from Me
TTITLE8=I Gotta Find a Way (To Get You Back)
TTITLE9=Gonna Keep on Tryin' Till I Win Your Love
EXTD=1969 YEAR: 1969
EXTT0=
EXTT1=
EXTT2=
EXTT3=
EXTT4=
EXTT5=
EXTT6=
EXTT7=
EXTT8=
EXTT9=
PLAYORDER=
